<?xml version="1.0" encoding="UTF-8" standalone="no"?>
<!-- Created with Inkscape (http://www.inkscape.org/) -->

<svg
   xmlns:dc="http://purl.org/dc/elements/1.1/"
   xmlns:cc="http://creativecommons.org/ns#"
   xmlns:rdf="http://www.w3.org/1999/02/22-rdf-syntax-ns#"
   xmlns:svg="http://www.w3.org/2000/svg"
   xmlns="http://www.w3.org/2000/svg"
   xmlns:sodipodi="http://sodipodi.sourceforge.net/DTD/sodipodi-0.dtd"
   xmlns:inkscape="http://www.inkscape.org/namespaces/inkscape"
   id="svg2"
   version="1.1"
   inkscape:version="0.48.3.1 r9886"
   width="100.36027"
   height="40.45509"
   xml:space="preserve"
   sodipodi:docname="Revista [ProyeccionesMat]-1.tex"><metadata
     id="metadata8"><rdf:RDF><cc:Work
         rdf:about=""><dc:format>image/svg+xml</dc:format><dc:type
           rdf:resource="http://purl.org/dc/dcmitype/StillImage" /><dc:title></dc:title></cc:Work></rdf:RDF></metadata><defs
     id="defs6"><clipPath
       clipPathUnits="userSpaceOnUse"
       id="clipPath40"><path
         d="M 663.355,641.613 192.988,1166.14 841.879,1578.83 663.355,641.613 z"
         clip-rule="evenodd"
         id="path42"
         inkscape:connector-curvature="0" /></clipPath><linearGradient
       x1="-32.663799"
       y1="0"
       x2="32.663799"
       y2="0"
       gradientUnits="userSpaceOnUse"
       gradientTransform="matrix(-0.93029,0.366826,-0.366826,-0.93029,40.674,112.816)"
       spreadMethod="pad"
       id="linearGradient44"><stop
         style="stop-opacity:1;stop-color:#0054ad"
         offset="0"
         id="stop46" /><stop
         style="stop-opacity:1;stop-color:#0370e3"
         offset="1"
         id="stop48" /></linearGradient><clipPath
       clipPathUnits="userSpaceOnUse"
       id="clipPath56"><path
         d="m 834.875,1847.62 -648.246,-664.44 652.297,428.78 -4.051,235.66 z"
         clip-rule="evenodd"
         id="path58"
         inkscape:connector-curvature="0" /></clipPath><linearGradient
       x1="-37.933498"
       y1="0"
       x2="37.933498"
       y2="0"
       gradientUnits="userSpaceOnUse"
       gradientTransform="matrix(-0.633651,0.773619,-0.773619,-0.633651,49.1433,168.942)"
       spreadMethod="pad"
       id="linearGradient60"><stop
         style="stop-opacity:1;stop-color:#00428a"
         offset="0"
         id="stop62" /><stop
         style="stop-opacity:1;stop-color:#0054ad"
         offset="1"
         id="stop64" /></linearGradient><clipPath
       clipPathUnits="userSpaceOnUse"
       id="clipPath74"><path
         d="M 687.508,634.461 869.125,1568.34 1577.99,973.859 687.508,634.461 z"
         clip-rule="evenodd"
         id="path76"
         inkscape:connector-curvature="0" /></clipPath><linearGradient
       x1="-51.1059"
       y1="0"
       x2="51.1059"
       y2="0"
       gradientUnits="userSpaceOnUse"
       gradientTransform="matrix(0.332491,-0.943107,0.943107,0.332491,106.662,101.633)"
       spreadMethod="pad"
       id="linearGradient78"><stop
         style="stop-opacity:1;stop-color:#0370e3"
         offset="0"
         id="stop80" /><stop
         style="stop-opacity:1;stop-color:#0054ad"
         offset="1"
         id="stop82" /></linearGradient><clipPath
       clipPathUnits="userSpaceOnUse"
       id="clipPath90"><path
         d="M 548.941,281.98 1385.89,145.973 676.863,615.273 548.941,281.98 z"
         clip-rule="evenodd"
         id="path92"
         inkscape:connector-curvature="0" /></clipPath><linearGradient
       x1="-16.527599"
       y1="0"
       x2="16.527599"
       y2="0"
       gradientUnits="userSpaceOnUse"
       gradientTransform="matrix(-0.539212,-0.84217,0.84217,-0.539212,88.4436,28.2167)"
       spreadMethod="pad"
       id="linearGradient94"><stop
         style="stop-opacity:1;stop-color:#00428a"
         offset="0"
         id="stop96" /><stop
         style="stop-opacity:1;stop-color:#0054ad"
         offset="1"
         id="stop98" /></linearGradient><clipPath
       clipPathUnits="userSpaceOnUse"
       id="clipPath106"><path
         d="M 1391.84,171.609 713.328,624.055 1569.98,939.352 1391.84,171.609 z"
         clip-rule="evenodd"
         id="path108"
         inkscape:connector-curvature="0" /></clipPath><linearGradient
       x1="-34.069901"
       y1="0"
       x2="34.069901"
       y2="0"
       gradientUnits="userSpaceOnUse"
       gradientTransform="matrix(-0.360974,0.932576,-0.932576,-0.360974,122.069,60.5105)"
       spreadMethod="pad"
       id="linearGradient110"><stop
         style="stop-opacity:1;stop-color:#ff4c00"
         offset="0"
         id="stop112" /><stop
         style="stop-opacity:1;stop-color:#ff753b"
         offset="1"
         id="stop114" /></linearGradient><clipPath
       clipPathUnits="userSpaceOnUse"
       id="clipPath126"><path
         d="m 2003.03,836.711 -396.68,139.172 82.06,731.287 314.62,-870.459 z"
         clip-rule="evenodd"
         id="path128"
         inkscape:connector-curvature="0" /></clipPath><linearGradient
       x1="-51.936298"
       y1="0"
       x2="51.936298"
       y2="0"
       gradientUnits="userSpaceOnUse"
       gradientTransform="matrix(0.762894,0.646524,-0.646524,0.762894,197.107,130.697)"
       spreadMethod="pad"
       id="linearGradient130"><stop
         style="stop-opacity:1;stop-color:#0054ad"
         offset="0"
         id="stop132" /><stop
         style="stop-opacity:1;stop-color:#0370e3"
         offset="1"
         id="stop134" /></linearGradient><clipPath
       clipPathUnits="userSpaceOnUse"
       id="clipPath142"><path
         d="m 879.441,1596.43 704.699,-581.76 80.45,696.42 -785.149,-114.66 z"
         clip-rule="evenodd"
         id="path144"
         inkscape:connector-curvature="0" /></clipPath><linearGradient
       x1="-60.483002"
       y1="0"
       x2="60.483002"
       y2="0"
       gradientUnits="userSpaceOnUse"
       gradientTransform="matrix(0.739514,0.673142,-0.673142,0.739514,166.546,170.031)"
       spreadMethod="pad"
       id="linearGradient146"><stop
         style="stop-opacity:1;stop-color:#00428a"
         offset="0"
         id="stop148" /><stop
         style="stop-opacity:1;stop-color:#004a9c"
         offset="0.3125"
         id="stop150" /><stop
         style="stop-opacity:1;stop-color:#0054ad"
         offset="1"
         id="stop152" /></linearGradient><clipPath
       clipPathUnits="userSpaceOnUse"
       id="clipPath160"><path
         d="M 869.582,1620.75 867.645,1842.23 1600,1721.72 869.582,1620.75 z"
         clip-rule="evenodd"
         id="path162"
         inkscape:connector-curvature="0" /></clipPath><linearGradient
       x1="-38.638199"
       y1="0"
       x2="38.638199"
       y2="0"
       gradientUnits="userSpaceOnUse"
       gradientTransform="matrix(0.985967,0.166941,-0.166941,0.985967,124.627,179.546)"
       spreadMethod="pad"
       id="linearGradient164"><stop
         style="stop-opacity:1;stop-color:#ff4c00"
         offset="0"
         id="stop166" /><stop
         style="stop-opacity:1;stop-color:#ff753b"
         offset="1"
         id="stop168" /></linearGradient></defs><sodipodi:namedview
     pagecolor="#ffffff"
     bordercolor="#666666"
     borderopacity="1"
     objecttolerance="10"
     gridtolerance="10"
     guidetolerance="10"
     inkscape:pageopacity="0"
     inkscape:pageshadow="2"
     inkscape:window-width="1280"
     inkscape:window-height="914"
     id="namedview4"
     showgrid="false"
     fit-margin-top="0"
     fit-margin-left="0"
     fit-margin-right="0"
     fit-margin-bottom="0"
     inkscape:zoom="2.0576097"
     inkscape:cx="145.33247"
     inkscape:cy="-24.488068"
     inkscape:window-x="0"
     inkscape:window-y="32"
     inkscape:window-maximized="1"
     inkscape:current-layer="g10" /><g
     id="g10"
     inkscape:groupmode="layer"
     inkscape:label="ink_ext_XXXXXX"
     transform="matrix(1.25,0,0,-1.25,-296.76891,189.31816)"><g
       id="g12"
       transform="matrix(0.01467498,0,0,0.01637107,237.3601,118.9513)"><path
         d="M 451.809,200.707 76.4648,1205.66 802.934,1950.29 1732.77,1797.29 2122.7,787.941 1420.43,43.3047 451.809,200.707 z"
         style="fill:none;stroke:#004289;stroke-width:28.3465004;stroke-linecap:butt;stroke-linejoin:miter;stroke-miterlimit:22.92560005;stroke-opacity:1;stroke-dasharray:none"
         id="path14"
         inkscape:connector-curvature="0" /><path
         d="M 672.098,23.4922 20.5078,923.508 540.742,1867.11 1511.29,1970.46 2178.65,1070.08 1682.59,133.152 672.098,23.4922 z"
         style="fill:none;stroke:#ff5400;stroke-width:28.3465004;stroke-linecap:butt;stroke-linejoin:miter;stroke-miterlimit:22.92560005;stroke-opacity:1;stroke-dasharray:none"
         id="path16"
         inkscape:connector-curvature="0" /><path
         d="m 2307.22,1153.03 3160.93,0 0,143.664 -3160.93,0 0,-143.664 z"
         style="fill:#ff4d00;fill-opacity:1;fill-rule:evenodd;stroke:none"
         id="path18"
         inkscape:connector-curvature="0" /><path
         d="m 2307.22,519.688 3160.93,0 0,37.8672 -3160.93,0 0,-37.8672 z"
         style="fill:#ff4d00;fill-opacity:1;fill-rule:evenodd;stroke:none"
         id="path20"
         inkscape:connector-curvature="0" /><g
         id="g22"
         transform="scale(10,10)"><text
           transform="matrix(1.00004,0,0,-1,303.287,117.771)"
           id="text24"><tspan
             style="font-size:11.98377895px;font-variant:normal;font-weight:bold;writing-mode:lr-tb;fill:#171717;fill-opacity:1;fill-rule:nonzero;stroke:none;font-family:Novecentowide-Bold;-inkscape-font-specification:Novecentowide-Bold-Bold"
             x="0 8.1489697 16.094215 24.590801 28.473545 35.831585 42.314754 50.931091 53.927036 63.190689 71.135933 74.131882 78.014626 87.290077 95.786621 103.3726 110.73064 118.05273 121.83953 131.33069 139.40762 148.3237 152.11046 161.56596"
             y="0"
             sodipodi:role="line"
             id="tspan26">REVISTA DE INVESTIGACIÓN</tspan></text>
<text
           transform="matrix(1,0,0,-1,227.573,83.6316)"
           id="text28"><tspan
             style="font-size:40.10680008px;font-variant:normal;font-weight:bold;writing-mode:lr-tb;fill:#171717;fill-opacity:1;fill-rule:nonzero;stroke:none;font-family:Novecentowide-Bold;-inkscape-font-specification:Novecentowide-Bold-Bold"
             x="0 25.307451 51.376629 80.53447 109.13062 134.51816 164.55803 194.39752 207.07138 238.71594 270.15967 295.54688"
             y="0"
             sodipodi:role="line"
             id="tspan30">Proyecciones</tspan></text>
<text
           transform="matrix(1,0,0,-1,228.97886,60.2968)"
           id="text32"><tspan
             style="font-size:23.70210075px;font-variant:normal;font-weight:bold;writing-mode:lr-tb;fill:#171717;fill-opacity:1;fill-rule:nonzero;stroke:none;font-family:Novecentowide-Bold;-inkscape-font-specification:Novecentowide-Bold-Bold"
             x="0 19.791029 35.173462 49.655445 65.369934 85.1614 100.54384 115.02582 122.51572 139.43918 156.05443 170.60751 176.53305 194.85489 210.56938 224.71953 230.64505 247.56824 264.13583 280.25327 287.93274 303.57614"
             y="0"
             sodipodi:role="line"
             id="tspan34">Matemáticas del Caribe</tspan></text>
</g><g
         id="g36"><g
           id="g38"
           clip-path="url(#clipPath40)"><path
             d="M 663.355,641.613 192.988,1166.14 841.879,1578.83 663.355,641.613"
             style="fill:url(#linearGradient44);fill-opacity:1;fill-rule:nonzero;stroke:none"
             id="path50"
             inkscape:connector-curvature="0" /></g></g><g
         id="g52"><g
           id="g54"
           clip-path="url(#clipPath56)"><path
             d="m 834.875,1847.62 -648.246,-664.44 652.297,428.78 -4.051,235.66"
             style="fill:url(#linearGradient60);fill-opacity:1;fill-rule:nonzero;stroke:none"
             id="path66"
             inkscape:connector-curvature="0" /></g></g><path
         d="M 521.559,286.43 210.578,1119.06 655.27,621.352 521.559,286.43"
         style="fill:#1a1a1a;fill-opacity:1;fill-rule:evenodd;stroke:none"
         id="path68"
         inkscape:connector-curvature="0" /><g
         id="g70"><g
           id="g72"
           clip-path="url(#clipPath74)"><path
             d="M 687.508,634.461 869.125,1568.34 1577.99,973.859 687.508,634.461"
             style="fill:url(#linearGradient78);fill-opacity:1;fill-rule:nonzero;stroke:none"
             id="path84"
             inkscape:connector-curvature="0" /></g></g><g
         id="g86"><g
           id="g88"
           clip-path="url(#clipPath90)"><path
             d="M 548.941,281.98 1385.89,145.973 676.863,615.273 548.941,281.98"
             style="fill:url(#linearGradient94);fill-opacity:1;fill-rule:nonzero;stroke:none"
             id="path100"
             inkscape:connector-curvature="0" /></g></g><g
         id="g102"><g
           id="g104"
           clip-path="url(#clipPath106)"><path
             d="M 1391.84,171.609 713.328,624.055 1569.98,939.352 1391.84,171.609"
             style="fill:url(#linearGradient110);fill-opacity:1;fill-rule:nonzero;stroke:none"
             id="path116"
             inkscape:connector-curvature="0" /></g></g><path
         d="M 2012.53,810.43 1603.65,946.848 1427.96,190.582 2012.53,810.43"
         style="fill:#1a1a1a;fill-opacity:1;fill-rule:evenodd;stroke:none"
         id="path118"
         inkscape:connector-curvature="0" /><path
         d="M 2012.53,810.43 1603.65,946.848 1427.96,190.582 2012.53,810.43 z"
         style="fill:none;stroke:#1a1a1a;stroke-width:2.16000009;stroke-linecap:butt;stroke-linejoin:miter;stroke-miterlimit:22.92560005;stroke-opacity:1;stroke-dasharray:none"
         id="path120"
         inkscape:connector-curvature="0" /><g
         id="g122"><g
           id="g124"
           clip-path="url(#clipPath126)"><path
             d="m 2003.03,836.711 -396.68,139.172 82.06,731.287 314.62,-870.459"
             style="fill:url(#linearGradient130);fill-opacity:1;fill-rule:nonzero;stroke:none"
             id="path136"
             inkscape:connector-curvature="0" /></g></g><g
         id="g138"><g
           id="g140"
           clip-path="url(#clipPath142)"><path
             d="m 879.441,1596.43 704.699,-581.76 80.45,696.42 -785.149,-114.66"
             style="fill:url(#linearGradient146);fill-opacity:1;fill-rule:nonzero;stroke:none"
             id="path154"
             inkscape:connector-curvature="0" /></g></g><g
         id="g156"><g
           id="g158"
           clip-path="url(#clipPath160)"><path
             d="M 869.582,1620.75 867.645,1842.23 1600,1721.72 869.582,1620.75"
             style="fill:url(#linearGradient164);fill-opacity:1;fill-rule:nonzero;stroke:none"
             id="path170"
             inkscape:connector-curvature="0" /></g></g><path
         d="m 1249.55,549.16 c 11.89,-33.742 25.81,-81.957 30.44,-89.91 4.65,-7.668 7.54,-8.473 15.37,-10.641 l 6.38,-1.769 c 2.9,-0.508 3.19,1.144 3.19,2.023 0,0.864 -0.58,1.61 -1.45,3.008 -2.9,3.996 -4.64,8.824 -6.67,15.188 l -59.15,181.363 c -6.09,18.496 -21.75,26.605 -35.37,30.383 -1.45,0.398 -5.22,1.445 -5.22,-1.739 0,-2.32 2.32,-3.55 2.61,-3.628 9.57,-4.391 11.6,-6.688 18.85,-28.415 l 28.12,-86.656 -80.03,-57.269 c -3.47,-2.52 -5.21,-3.778 -5.21,-7.547 0,-4.926 4.06,-9.535 8.7,-10.817 4.63,-1.285 7.25,1.184 9.57,3.438 l 69.87,62.988"
         style="fill:#00458f;fill-opacity:1;fill-rule:nonzero;stroke:none"
         id="path172"
         inkscape:connector-curvature="0" /><path
         d="m 496.449,1178.26 52.094,0 c -0.293,-68.23 -0.098,-88.05 6.66,-118.94 1.512,-6.91 4.235,-19.36 11.352,-35.04 9.054,-20.29 14.726,-23.06 21.64,-23.06 9.219,0 17.086,8.3 15.067,17.53 -0.606,2.76 -0.809,3.68 -4.973,10.13 -20.644,33.21 -27.199,63.17 -30.023,76.08 -5.348,24.43 -7.567,49.33 -7.731,73.3 l 52.563,0 c 5.992,0 22.586,0 19.156,15.67 -2.418,11.08 -12.102,11.08 -20.863,11.08 l -154.453,0 c -10.141,0 -27.665,0 -43.204,-21.67 -12.203,-17.99 -19.554,-39.19 -19.05,-41.5 0.101,-0.45 1.011,-4.62 6.546,-4.62 3.688,0 4.2,1.85 6.161,5.54 14.824,35.5 41.574,35.5 50.793,35.5 l 26.277,0 c -2.555,-55.78 -15.246,-111.57 -25.43,-153.52 -2.176,-6.91 -1.972,-7.85 -1.265,-11.07 1.914,-8.75 10.093,-12.45 16.089,-12.45 13.84,0 14.704,12.91 16.508,29.97 1.809,21.22 1.61,22.13 2.563,45.18 l 3.523,101.89"
         style="fill:#ff4f05;fill-opacity:1;fill-rule:nonzero;stroke:none"
         id="path174"
         inkscape:connector-curvature="0" /><path
         d="m 1383.47,1466.51 c -16.45,29.22 -21.42,37.53 -33.2,53.05 -18.93,25.14 -38.79,42.48 -55.86,52.84 -38.47,23.35 -66.41,7.44 -66.41,-29.81 0,-36.3 26.69,-86.02 65.48,-109.57 43.13,-26.18 73.23,-9.08 84.4,0.59 16.45,-29.24 21.42,-37.53 33.21,-53.06 18.92,-25.15 38.79,-42.48 55.85,-52.84 38.48,-23.37 66.41,-7.43 66.41,29.81 0,36.3 -26.69,86.02 -65.47,109.56 -43.14,26.19 -73.24,9.1 -84.41,-0.57 z m 9.92,-17.5 c 12.42,12.63 39.42,27.58 77.27,4.6 31.96,-19.41 54,-61.03 54,-90.82 0,-29.79 -24.21,-38.36 -52.75,-21.04 -28.86,17.53 -48.72,53.17 -78.52,107.26 z m -25.43,2.1 c -12.42,-12.63 -39.42,-27.58 -77.27,-4.6 -31.96,19.4 -53.99,61.03 -53.99,90.8 0,29.8 24.2,38.37 52.75,21.03 28.86,-17.52 48.71,-53.15 78.51,-107.23"
         style="fill:#ff4f05;fill-opacity:1;fill-rule:nonzero;stroke:none"
         id="path176"
         inkscape:connector-curvature="0" /></g></g></svg>